<svg width="64" height="64" viewBox="0 0 64 64" fill="none" xmlns="http://www.w3.org/2000/svg">
<g filter="url(#filter0_dd_94_132)">
<rect x="12" y="2" width="40" height="40" rx="20" fill="url(#paint0_linear_94_132)" shape-rendering="crispEdges"/>
<g clip-path="url(#clip0_94_132)">
<path d="M30.2809 24.9167C30.2065 24.6283 30.0561 24.3651 29.8455 24.1545C29.6349 23.9439 29.3718 23.7936 29.0834 23.7192L23.9709 22.4009C23.8836 22.3761 23.8069 22.3236 23.7522 22.2512C23.6975 22.1789 23.668 22.0907 23.668 22C23.668 21.9094 23.6975 21.8212 23.7522 21.7488C23.8069 21.6765 23.8836 21.624 23.9709 21.5992L29.0834 20.28C29.3717 20.2057 29.6348 20.0555 29.8454 19.8451C30.056 19.6346 30.2063 19.3716 30.2809 19.0834L31.5992 13.9709C31.6237 13.8833 31.6762 13.8062 31.7486 13.7512C31.8211 13.6963 31.9095 13.6665 32.0004 13.6665C32.0914 13.6665 32.1798 13.6963 32.2523 13.7512C32.3247 13.8062 32.3772 13.8833 32.4017 13.9709L33.7192 19.0834C33.7936 19.3718 33.9439 19.635 34.1545 19.8456C34.3651 20.0562 34.6283 20.2065 34.9167 20.2809L40.0292 21.5984C40.1171 21.6226 40.1946 21.6751 40.2499 21.7476C40.3052 21.8202 40.3351 21.9088 40.3351 22C40.3351 22.0912 40.3052 22.1799 40.2499 22.2525C40.1946 22.325 40.1171 22.3775 40.0292 22.4017L34.9167 23.7192C34.6283 23.7936 34.3651 23.9439 34.1545 24.1545C33.9439 24.3651 33.7936 24.6283 33.7192 24.9167L32.4009 30.0292C32.3764 30.1168 32.3239 30.1939 32.2514 30.2489C32.179 30.3038 32.0905 30.3336 31.9996 30.3336C31.9087 30.3336 31.8202 30.3038 31.7478 30.2489C31.6754 30.1939 31.6229 30.1168 31.5984 30.0292L30.2809 24.9167Z" stroke="white" stroke-width="1.66667" stroke-linecap="round" stroke-linejoin="round"/>
<path d="M38.6666 14.5V17.8333" stroke="white" stroke-width="1.66667" stroke-linecap="round" stroke-linejoin="round"/>
<path d="M40.3333 16.1665H37" stroke="white" stroke-width="1.66667" stroke-linecap="round" stroke-linejoin="round"/>
<path d="M25.3334 26.1665V27.8332" stroke="white" stroke-width="1.66667" stroke-linecap="round" stroke-linejoin="round"/>
<path d="M26.1667 27H24.5" stroke="white" stroke-width="1.66667" stroke-linecap="round" stroke-linejoin="round"/>
</g>
</g>
<defs>
<filter id="filter0_dd_94_132" x="0" y="0" width="64" height="64" filterUnits="userSpaceOnUse" color-interpolation-filters="sRGB">
<feFlood flood-opacity="0" result="BackgroundImageFix"/>
<feColorMatrix in="SourceAlpha" type="matrix" values="0 0 0 0 0 0 0 0 0 0 0 0 0 0 0 0 0 0 127 0" result="hardAlpha"/>
<feMorphology radius="4" operator="erode" in="SourceAlpha" result="effect1_dropShadow_94_132"/>
<feOffset dy="4"/>
<feGaussianBlur stdDeviation="3"/>
<feComposite in2="hardAlpha" operator="out"/>
<feColorMatrix type="matrix" values="0 0 0 0 0 0 0 0 0 0.737255 0 0 0 0 0.490196 0 0 0 0.3 0"/>
<feBlend mode="normal" in2="BackgroundImageFix" result="effect1_dropShadow_94_132"/>
<feColorMatrix in="SourceAlpha" type="matrix" values="0 0 0 0 0 0 0 0 0 0 0 0 0 0 0 0 0 0 127 0" result="hardAlpha"/>
<feMorphology radius="3" operator="erode" in="SourceAlpha" result="effect2_dropShadow_94_132"/>
<feOffset dy="10"/>
<feGaussianBlur stdDeviation="7.5"/>
<feComposite in2="hardAlpha" operator="out"/>
<feColorMatrix type="matrix" values="0 0 0 0 0 0 0 0 0 0.737255 0 0 0 0 0.490196 0 0 0 0.3 0"/>
<feBlend mode="normal" in2="effect1_dropShadow_94_132" result="effect2_dropShadow_94_132"/>
<feBlend mode="normal" in="SourceGraphic" in2="effect2_dropShadow_94_132" result="shape"/>
</filter>
<linearGradient id="paint0_linear_94_132" x1="12" y1="2" x2="52" y2="42" gradientUnits="userSpaceOnUse">
<stop stop-color="#00BC7D"/>
<stop offset="1" stop-color="#155DFC"/>
</linearGradient>
<clipPath id="clip0_94_132">
<rect width="20" height="20" fill="white" transform="translate(22 12)"/>
</clipPath>
</defs>
</svg>
